  0
SECTION
  2
HEADER
  9
$ACADVER
  1
AC1014
  9
$ACADMAINTVER
 70
     0
  9
$DWGCODEPAGE
  3
ANSI_1252
  9
$INSBASE
 10
0.0
 20
0.0
 30
0.0
  9
$EXTMIN
 10
0.0
 20
0.0
 30
0.0
  9
$EXTMAX
 10
210.0
 20
297.0
 30
0.0
  9
$LIMMIN
 10
0.0
 20
0.0
  9
$LIMMAX
 10
12.0
 20
9.0
  9
$ORTHOMODE
 70
     0
  9
$REGENMODE
 70
     1
  9
$FILLMODE
 70
     0
  9
$QTEXTMODE
 70
     0
  9
$MIRRTEXT
 70
     1
  9
$DRAGMODE
 70
     2
  9
$LTSCALE
 40
1.0
  9
$OSMODE
 70
     0
  9
$ATTMODE
 70
     1
  9
$TEXTSIZE
 40
0.2
  9
$TRACEWID
 40
0.05
  9
$TEXTSTYLE
  7
STANDARD
  9
$CLAYER
  8
0
  9
$CELTYPE
  6
BYLAYER
  9
$CECOLOR
 62
   256
  9
$CELTSCALE
 40
1.0
  9
$DELOBJ
 70
     1
  9
$DISPSILH
 70
     0
  9
$DIMSCALE
 40
1.0
  9
$DIMASZ
 40
0.18
  9
$DIMEXO
 40
0.0625
  9
$DIMDLI
 40
0.38
  9
$DIMRND
 40
0.0
  9
$DIMDLE
 40
0.0
  9
$DIMEXE
 40
0.18
  9
$DIMTP
 40
0.0
  9
$DIMTM
 40
0.0
  9
$DIMTXT
 40
0.18
  9
$DIMCEN
 40
0.09
  9
$DIMTSZ
 40
0.0
  9
$DIMTOL
 70
     0
  9
$DIMLIM
 70
     0
  9
$DIMTIH
 70
     0
  9
$DIMTOH
 70
     0
  9
$DIMSE1
 70
     0
  9
$DIMSE2
 70
     0
  9
$DIMTAD
 70
     1
  9
$DIMZIN
 70
     0
  9
$DIMBLK
  1

  9
$DIMASO
 70
     1
  9
$DIMSHO
 70
     1
  9
$DIMPOST
  1

  9
$DIMAPOST
  1

  9
$DIMALT
 70
     0
  9
$DIMALTD
 70
     2
  9
$DIMALTF
 40
25.4
  9
$DIMLFAC
 40
1.0
  9
$DIMTOFL
 70
     0
  9
$DIMTVP
 40
0.0
  9
$DIMTIX
 70
     0
  9
$DIMSOXD
 70
     0
  9
$DIMSAH
 70
     0
  9
$DIMBLK1
  1

  9
$DIMBLK2
  1

  9
$DIMSTYLE
  2
STANDARD
  9
$DIMCLRD
 70
     0
  9
$DIMCLRE
 70
     0
  9
$DIMCLRT
 70
     0
  9
$DIMTFAC
 40
1.0
  9
$DIMGAP
 40
0.09
  9
$DIMJUST
 70
     0
  9
$DIMSD1
 70
     0
  9
$DIMSD2
 70
     0
  9
$DIMTOLJ
 70
     1
  9
$DIMTZIN
 70
     0
  9
$DIMALTZ
 70
     0
  9
$DIMALTTZ
 70
     0
  9
$DIMFIT
 70
     3
  9
$DIMUPT
 70
     0
  9
$DIMUNIT
 70
     2
  9
$DIMDEC
 70
     2
  9
$DIMTDEC
 70
     4
  9
$DIMALTU
 70
     2
  9
$DIMALTTD
 70
     2
  9
$DIMTXSTY
  7
STANDARD
  9
$DIMAUNIT
 70
     0
  9
$LUNITS
 70
     2
  9
$LUPREC
 70
     4
  9
$SKETCHINC
 40
0.1
  9
$FILLETRAD
 40
0.5
  9
$AUNITS
 70
     0
  9
$AUPREC
 70
     0
  9
$MENU
  1
.
  9
$ELEVATION
 40
0.0
  9
$PELEVATION
 40
0.0
  9
$THICKNESS
 40
0.0
  9
$LIMCHECK
 70
     0
  9
$BLIPMODE
 70
     0
  9
$CHAMFERA
 40
0.5
  9
$CHAMFERB
 40
0.5
  9
$CHAMFERC
 40
1.0
  9
$CHAMFERD
 40
0.0
  9
$SKPOLY
 70
     0
  9
$TDCREATE
 40
2450772.666465926
  9
$TDUPDATE
 40
2457486.392557871
  9
$TDINDWG
 40
0.0011564931
  9
$TDUSRTIMER
 40
0.0000000000
  9
$USRTIMER
 70
     1
  9
$ANGBASE
 50
0.0
  9
$ANGDIR
 70
     0
  9
$PDMODE
 70
     0
  9
$PDSIZE
 40
0.0
  9
$PLINEWID
 40
0.0
  9
$COORDS
 70
     1
  9
$SPLFRAME
 70
     0
  9
$SPLINETYPE
 70
     6
  9
$SPLINESEGS
 70
     8
  9
$ATTDIA
 70
     0
  9
$ATTREQ
 70
     1
  9
$HANDLING
 70
     1
  9
$HANDSEED
  5
E2
  9
$SURFTAB1
 70
     6
  9
$SURFTAB2
 70
     6
  9
$SURFTYPE
 70
     6
  9
$SURFU
 70
     6
  9
$SURFV
 70
     6
  9
$UCSNAME
  2

  9
$UCSORG
 10
0.0
 20
0.0
 30
0.0
  9
$UCSXDIR
 10
1.0
 20
0.0
 30
0.0
  9
$UCSYDIR
 10
0.0
 20
1.0
 30
0.0
  9
$PUCSNAME
  2

  9
$PUCSORG
 10
0.0
 20
0.0
 30
0.0
  9
$PUCSXDIR
 10
1.0
 20
0.0
 30
0.0
  9
$PUCSYDIR
 10
0.0
 20
1.0
 30
0.0
  9
$USERI1
 70
     0
  9
$USERI2
 70
     0
  9
$USERI3
 70
     0
  9
$USERI4
 70
     0
  9
$USERI5
 70
     0
  9
$USERR1
 40
0.0
  9
$USERR2
 40
0.0
  9
$USERR3
 40
0.0
  9
$USERR4
 40
0.0
  9
$USERR5
 40
0.0
  9
$WORLDVIEW
 70
     1
  9
$SHADEDGE
 70
     3
  9
$SHADEDIF
 70
    70
  9
$TILEMODE
 70
     1
  9
$MAXACTVP
 70
    48
  9
$PINSBASE
 10
0.0
 20
0.0
 30
0.0
  9
$PLIMCHECK
 70
     0
  9
$PEXTMIN
 10
0.0
 20
0.0
 30
0.0
  9
$PEXTMAX
 10
0.0
 20
0.0
 30
0.0
  9
$PLIMMIN
 10
0.0
 20
0.0
  9
$PLIMMAX
 10
12.0
 20
9.0
  9
$UNITMODE
 70
     0
  9
$VISRETAIN
 70
     1
  9
$PLINEGEN
 70
     0
  9
$PSLTSCALE
 70
     1
  9
$TREEDEPTH
 70
  3020
  9
$PICKSTYLE
 70
     1
  9
$CMLSTYLE
  2
STANDARD
  9
$CMLJUST
 70
     0
  9
$CMLSCALE
 40
1.0
  9
$PROXYGRAPHICS
 70
     1
  9
$MEASUREMENT
 70
     0
  0
ENDSEC
  0
SECTION
  2
CLASSES
  0
CLASS
  1
LWPOLYLINE
  2
AcDbPolyline
  3
"AutoCAD"
 90
        0
280
     0
281
     1
  0
CLASS
  1
IMAGE
  2
AcDbRasterImage
  3
ISM
 90
      127
280
     0
281
     1
  0
CLASS
  1
OLE2FRAME
  2
AcDbOle2Frame
  3
""
 90
        0
280
     0
281
     1
  0
CLASS
  1
HATCH
  2
AcDbHatch
  3
"ACAD_SEDONA"
 90
        0
280
     0
281
     1
  0
CLASS
  1
DICTIONARYVAR
  2
AcDbDictionaryVar
  3
"AutoCAD"
 90
        0
280
     0
281
     0
  0
CLASS
  1
RASTERVARIABLES
  2
AcDbRasterVariables
  3
ISM
 90
        0
280
     0
281
     0
  0
CLASS
  1
IMAGEDEF
  2
AcDbRasterImageDef
  3
ISM
 90
        0
280
     0
281
     0
  0
CLASS
  1
IMAGEDEF_REACTOR
  2
AcDbRasterImageDefReactor
  3
ISM
 90
        1
280
     0
281
     0
  0
CLASS
  1
IDBUFFER
  2
AcDbIdBuffer
  3
"Acad"
 90
        0
280
     0
281
     0
  0
CLASS
  1
SPATIAL_FILTER
  2
AcDbSpatialFilter
  3
"Acad"
 90
        0
280
     0
281
     0
  0
CLASS
  1
XRECORD
  2
AcDbXrecord
  3
"<Built In>"
 90
        0
280
     0
281
     0
  0
CLASS
  1
SORTENTSTABLE
  2
AcDbSortentsTable
  3
"AutoCAD"
 90
        0
280
     0
281
     0
  0
CLASS
  1
LAYER_INDEX
  2
AcDbLayerIndex
  3
"Acad"
 90
        0
280
     0
281
     0
  0
CLASS
  1
SPATIAL_INDEX
  2
AcDbSpatialIndex
  3
"Acad"
 90
        0
280
     0
281
     0
  0
CLASS
  1
OBJECT_PTR
  2
CAseDLPNTableRecord
  3
"ASE-LPNTableRecord"
 90
        1
280
     0
281
     0
  0
CLASS
  1
LAYOUT
  2
AcDbLayout
  3
"AutoCAD 2000"
 90
        1
280
     0
281
     0
  0
CLASS
  1
PLOTSETTINGS
  2
AcDbPlotSettings
  3
"AutoCAD 2000"
 90
        1
280
     0
281
     0
  0
CLASS
  1
ACDBDICTIONARYWDFLT
  2
AcDbDictionaryWithDefault
  3
"AutoCAD 2000"
 90
        1
280
     0
281
     0
  0
CLASS
  1
ACDBPLACEHOLDER
  2
AcDbPlaceHolder
  3
"AutoCAD 2000"
 90
        1
280
     0
281
     0
  0
CLASS
  1
VBA_PROJECT
  2
AcDbVbaProject
  3
"acadvba"
 90
        1
280
     0
281
     0
  0
CLASS
  1
WIPEOUT
  2
AcDbWipeout
  3
WipeOut|AutoCAD Express Tool|expresstools@autodesk.com
 90
      127
280
     0
281
     1
  0
CLASS
  1
WIPEOUTVARIABLES
  2
AcDbWipeoutVariables
  3
WipeOut|AutoCAD Express Tool|expresstools@autodesk.com
 90
        0
280
     0
281
     0
  0
CLASS
  1
RTEXT
  2
RText
  3
RText|AutoCAD Express Tool|expresstools@autodesk.com
 90
        0
280
     0
281
     1
  0
CLASS
  1
ARCALIGNEDTEXT
  2
AcDbArcAlignedText
  3
ATEXT|AutoCAD Express Tool|expresstools@autodesk.com
 90
        0
280
     0
281
     1
  0
ENDSEC
  0
SECTION
  2
TABLES
  0
TABLE
  2
VPORT
  5
8
100
AcDbSymbolTable
 70
     1
  0
VPORT
  5
25
100
AcDbSymbolTableRecord
100
AcDbViewportTableRecord
  2
*ACTIVE
 70
     0
 10
0.0
 20
0.0
 11
1.0
 21
1.0
 12
105.0
 22
148.5
 13
0.0
 23
0.0
 14
0.5
 24
0.5
 15
0.5
 25
0.5
 16
0.0
 26
0.0
 36
1.0
 17
0.0
 27
0.0
 37
0.0
 40
297.0
 41
0.707071
 42
50.0
 43
0.0
 44
0.0
 50
0.0
 51
0.0
 71
     0
 72
   100
 73
     1
 74
     1
 75
     0
 76
     0
 77
     0
 78
     0
  0
ENDTAB
  0
TABLE
  2
LTYPE
  5
5
100
AcDbSymbolTable
 70
     3
  0
LTYPE
  5
12
100
AcDbSymbolTableRecord
100
AcDbLinetypeTableRecord
  2
BYBLOCK
 70
    64
  3

 72
    65
 73
     0
 40
0.0
  0
LTYPE
  5
13
100
AcDbSymbolTableRecord
100
AcDbLinetypeTableRecord
  2
BYLAYER
 70
    64
  3

 72
    65
 73
     0
 40
0.0
  0
LTYPE
  5
14
100
AcDbSymbolTableRecord
100
AcDbLinetypeTableRecord
  2
CONTINUOUS
 70
     0
  3
Solid line
 72
    65
 73
     0
 40
0.0
  0
ENDTAB
  0
TABLE
  2
LAYER
  5
2
100
AcDbSymbolTable
 70
     1
  0
LAYER
  5
E
100
AcDbSymbolTableRecord
100
AcDbLayerTableRecord
  2
0
 70
     0
 62
     7
  6
CONTINUOUS
  0
ENDTAB
  0
TABLE
  2
STYLE
  5
3
100
AcDbSymbolTable
 70
     1
  0
STYLE
  5
F
100
AcDbSymbolTableRecord
100
AcDbTextStyleTableRecord
  2
STANDARD
 70
     0
 40
0.0
 41
1.0
 50
0.0
 71
     0
 42
0.2
  3
txt.shx
  4

  0
ENDTAB
  0
TABLE
  2
VIEW
  5
6
100
AcDbSymbolTable
 70
     0
  0
ENDTAB
  0
TABLE
  2
UCS
  5
7
100
AcDbSymbolTable
 70
     0
  0
ENDTAB
  0
TABLE
  2
APPID
  5
9
100
AcDbSymbolTable
 70
     1
  0
APPID
  5
10
100
AcDbSymbolTableRecord
100
AcDbRegAppTableRecord
  2
ACAD
 70
     0
  0
ENDTAB
  0
TABLE
  2
DIMSTYLE
  5
A
100
AcDbSymbolTable
 70
     1
  0
DIMSTYLE
105
1D
100
AcDbSymbolTableRecord
100
AcDbDimStyleTableRecord
  2
STANDARD
 70
     0
  3

  4

  5

  6

  7

 40
1.0
 41
0.18
 42
0.0625
 43
0.38
 44
0.18
 45
0.0
 46
0.0
 47
0.0
 48
0.0
 71
     0
 72
     0
 73
     1
 74
     1
 75
     0
 76
     0
 77
     0
 78
     0
140
0.18
141
0.09
142
0.0
143
25.4
144
1.0
145
0.0
146
1.0
147
0.09
170
     0
171
     2
172
     0
173
     0
174
     0
175
     0
176
     0
177
     0
178
     0
270
     2
271
     4
272
     4
273
     2
274
     2
275
     0
280
     0
281
     0
282
     0
283
     1
284
     0
285
     0
286
     0
287
     3
288
     0
340
F
  0
ENDTAB
  0
TABLE
  2
BLOCK_RECORD
  5
1
100
AcDbSymbolTable
 70
     0
  0
BLOCK_RECORD
  5
18
100
AcDbSymbolTableRecord
100
AcDbBlockTableRecord
  2
*MODEL_SPACE
  0
BLOCK_RECORD
  5
15
100
AcDbSymbolTableRecord
100
AcDbBlockTableRecord
  2
*PAPER_SPACE
  0
ENDTAB
  0
ENDSEC
  0
SECTION
  2
BLOCKS
  0
BLOCK
  5
19
100
AcDbEntity
  8
0
100
AcDbBlockBegin
  2
*MODEL_SPACE
 70
     0
 10
0.0
 20
0.0
 30
0.0
  3
*MODEL_SPACE
  1

  0
ENDBLK
  5
1A
100
AcDbEntity
  8
0
100
AcDbBlockEnd
  0
BLOCK
  5
16
100
AcDbEntity
 67
     1
  8
0
100
AcDbBlockBegin
  2
*PAPER_SPACE
 70
     0
 10
0.0
 20
0.0
 30
0.0
  3
*PAPER_SPACE
  1

  0
ENDBLK
  5
17
100
AcDbEntity
 67
     1
  8
0
100
AcDbBlockEnd
  0
ENDSEC
  0
SECTION
  2
ENTITIES
  0
LWPOLYLINE
  5
32
102
{ACAD_REACTORS
330
31
102
}
100
AcDbEntity
  8
0
  6
CONTINUOUS
 62
     7
100
AcDbPolyline
 90
        4
 70
     1
 10
5.0
 20
292.0
 10
5.0
 20
236.0
 10
147.0
 20
236.0
 10
147.0
 20
292.0
  0
LWPOLYLINE
  5
33
102
{ACAD_REACTORS
330
31
102
}
100
AcDbEntity
  8
0
  6
CONTINUOUS
 62
     7
100
AcDbPolyline
 90
        8
 70
     1
 10
109.5
 20
238.75
 10
132.5
 20
238.75
 42
0.414214
 10
133.5
 20
239.75
 10
133.5
 20
245.75
 42
0.414214
 10
132.5
 20
246.75
 10
109.5
 20
246.75
 42
0.414214
 10
108.5
 20
245.75
 10
108.5
 20
239.75
 42
0.414214
  0
CIRCLE
  5
34
102
{ACAD_REACTORS
330
31
102
}
100
AcDbEntity
  8
0
  6
CONTINUOUS
 62
     7
100
AcDbCircle
 10
141.5
 20
287.25
 30
0.0
 40
2.5
  0
CIRCLE
  5
35
102
{ACAD_REACTORS
330
31
102
}
100
AcDbEntity
  8
0
  6
CONTINUOUS
 62
     7
100
AcDbCircle
 10
141.5
 20
242.25
 30
0.0
 40
2.5
  0
CIRCLE
  5
36
102
{ACAD_REACTORS
330
31
102
}
100
AcDbEntity
  8
0
  6
CONTINUOUS
 62
     7
100
AcDbCircle
 10
10.4
 20
287.25
 30
0.0
 40
2.5
  0
CIRCLE
  5
37
102
{ACAD_REACTORS
330
31
102
}
100
AcDbEntity
  8
0
  6
CONTINUOUS
 62
     7
100
AcDbCircle
 10
10.4
 20
242.25
 30
0.0
 40
2.5
  0
LWPOLYLINE
  5
38
102
{ACAD_REACTORS
330
31
102
}
100
AcDbEntity
  8
0
  6
CONTINUOUS
 62
     7
100
AcDbPolyline
 90
        8
 70
     1
 10
90.5
 20
282.25
 10
113.5
 20
282.25
 42
0.414214
 10
114.5
 20
283.25
 10
114.5
 20
289.25
 42
0.414214
 10
113.5
 20
290.25
 10
90.5
 20
290.25
 42
0.414214
 10
89.5
 20
289.25
 10
89.5
 20
283.25
 42
0.414214
  0
CIRCLE
  5
39
102
{ACAD_REACTORS
330
31
102
}
100
AcDbEntity
  8
0
  6
CONTINUOUS
 62
     7
100
AcDbCircle
 10
119.0
 20
280.2
 30
0.0
 40
2.5
  0
LWPOLYLINE
  5
3A
102
{ACAD_REACTORS
330
31
102
}
100
AcDbEntity
  8
0
  6
CONTINUOUS
 62
     7
100
AcDbPolyline
 90
        8
 70
     1
 10
127.9
 20
269.8
 10
127.9
 20
266.8
 42
0.414214
 10
128.9
 20
265.8
 10
138.9
 20
265.8
 42
0.414214
 10
139.9
 20
266.8
 10
139.9
 20
269.8
 42
0.414214
 10
138.9
 20
270.8
 10
128.9
 20
270.8
 42
0.414214
  0
LWPOLYLINE
  5
3B
102
{ACAD_REACTORS
330
31
102
}
100
AcDbEntity
  8
0
  6
CONTINUOUS
 62
     7
100
AcDbPolyline
 90
        8
 70
     1
 10
83.0
 20
262.7
 10
83.0
 20
259.7
 42
0.414214
 10
84.0
 20
258.7
 10
94.0
 20
258.7
 42
0.414214
 10
95.0
 20
259.7
 10
95.0
 20
262.7
 42
0.414214
 10
94.0
 20
263.7
 10
84.0
 20
263.7
 42
0.414214
  0
LWPOLYLINE
  5
3C
102
{ACAD_REACTORS
330
31
102
}
100
AcDbEntity
  8
0
  6
CONTINUOUS
 62
     7
100
AcDbPolyline
 90
        8
 70
     1
 10
69.5
 20
262.7
 10
69.5
 20
259.7
 42
0.414214
 10
70.5
 20
258.7
 10
80.5
 20
258.7
 42
0.414214
 10
81.5
 20
259.7
 10
81.5
 20
262.7
 42
0.414214
 10
80.5
 20
263.7
 10
70.5
 20
263.7
 42
0.414214
  0
CIRCLE
  5
3D
102
{ACAD_REACTORS
330
31
102
}
100
AcDbEntity
  8
0
  6
CONTINUOUS
 62
     7
100
AcDbCircle
 10
44.3
 20
282.3
 30
0.0
 40
2.5
  0
LWPOLYLINE
  5
3E
102
{ACAD_REACTORS
330
31
102
}
100
AcDbEntity
  8
0
  6
CONTINUOUS
 62
     7
100
AcDbPolyline
 90
        8
 70
     1
 10
51.5
 20
282.25
 10
74.5
 20
282.25
 42
0.414214
 10
75.5
 20
283.25
 10
75.5
 20
289.25
 42
0.414214
 10
74.5
 20
290.25
 10
51.5
 20
290.25
 42
0.414214
 10
50.5
 20
289.25
 10
50.5
 20
283.25
 42
0.414214
  0
LWPOLYLINE
  5
3F
102
{ACAD_REACTORS
330
31
102
}
100
AcDbEntity
  8
0
  6
CONTINUOUS
 62
     7
100
AcDbPolyline
 90
        8
 70
     1
 10
32.5
 20
238.8
 10
55.5
 20
238.8
 42
0.414214
 10
56.5
 20
239.8
 10
56.5
 20
245.8
 42
0.414214
 10
55.5
 20
246.8
 10
32.5
 20
246.8
 42
0.414214
 10
31.5
 20
245.8
 10
31.5
 20
239.8
 42
0.414214
  0
CIRCLE
  5
40
102
{ACAD_REACTORS
330
31
102
}
100
AcDbEntity
  8
0
  6
CONTINUOUS
 62
     7
100
AcDbCircle
 10
63.6
 20
243.2
 30
0.0
 40
2.5
  0
LWPOLYLINE
  5
41
102
{ACAD_REACTORS
330
31
102
}
100
AcDbEntity
  8
0
  6
CONTINUOUS
 62
     7
100
AcDbPolyline
 90
        8
 70
     1
 10
18.2
 20
269.6
 10
18.2
 20
266.6
 42
0.414214
 10
19.2
 20
265.6
 10
29.2
 20
265.6
 42
0.414214
 10
30.2
 20
266.6
 10
30.2
 20
269.6
 42
0.414214
 10
29.2
 20
270.6
 10
19.2
 20
270.6
 42
0.414214
  0
LWPOLYLINE
  5
43
102
{ACAD_REACTORS
330
42
102
}
100
AcDbEntity
  8
0
  6
CONTINUOUS
 62
     7
100
AcDbPolyline
 90
        4
 70
     1
 10
5.0
 20
233.5
 10
5.0
 20
177.5
 10
147.0
 20
177.5
 10
147.0
 20
233.5
  0
CIRCLE
  5
44
102
{ACAD_REACTORS
330
42
102
}
100
AcDbEntity
  8
0
  6
CONTINUOUS
 62
     7
100
AcDbCircle
 10
141.5
 20
183.05
 30
0.0
 40
2.5
  0
CIRCLE
  5
45
102
{ACAD_REACTORS
330
42
102
}
100
AcDbEntity
  8
0
  6
CONTINUOUS
 62
     7
100
AcDbCircle
 10
10.4
 20
228.05
 30
0.0
 40
2.5
  0
CIRCLE
  5
46
102
{ACAD_REACTORS
330
42
102
}
100
AcDbEntity
  8
0
  6
CONTINUOUS
 62
     7
100
AcDbCircle
 10
141.5
 20
228.05
 30
0.0
 40
2.5
  0
CIRCLE
  5
47
102
{ACAD_REACTORS
330
42
102
}
100
AcDbEntity
  8
0
  6
CONTINUOUS
 62
     7
100
AcDbCircle
 10
10.4
 20
183.05
 30
0.0
 40
2.5
  0
LWPOLYLINE
  5
48
102
{ACAD_REACTORS
330
42
102
}
100
AcDbEntity
  8
0
  6
CONTINUOUS
 62
     7
100
AcDbPolyline
 90
       54
 70
     1
 10
103.3
 20
219.9
 10
103.3
 20
223.05
 10
112.5
 20
223.05
 42
0.720759
 10
114.0
 20
218.55
 10
119.0
 20
218.55
 10
119.25
 20
218.55
 42
0.902264
 10
119.25
 20
223.537469
 10
119.0
 20
223.55
 10
114.351228
 20
223.55
 42
0.157795
 10
114.5
 20
224.05
 10
114.5
 20
230.05
 42
0.414214
 10
113.5
 20
231.05
 10
90.5
 20
231.05
 42
0.414214
 10
89.5
 20
230.05
 10
89.5
 20
224.85
 10
88.3
 20
224.85
 10
88.3
 20
216.25
 10
83.3
 20
216.25
 10
83.3
 20
213.75
 10
88.3
 20
213.75
 10
88.3
 20
203.4
 10
87.636541
 20
203.4
 42
2.998827
 10
87.561505
 20
200.4
 10
88.3
 20
200.4
 10
88.3
 20
197.4
 10
106.6
 20
197.4
 10
106.6
 20
194.55
 10
111.6
 20
194.55
 10
111.6
 20
190.95
 10
119.6
 20
190.95
 10
119.6
 20
187.55
 10
109.5
 20
187.55
 42
0.414214
 10
108.5
 20
186.55
 10
108.5
 20
180.55
 42
0.414214
 10
109.5
 20
179.55
 10
132.5
 20
179.55
 42
0.414214
 10
133.5
 20
180.55
 10
133.5
 20
185.95
 10
134.6
 20
185.95
 10
134.6
 20
194.6
 10
139.6
 20
194.6
 10
139.6
 20
197.1
 10
134.6
 20
197.1
 10
134.6
 20
207.45
 10
135.579063
 20
207.45
 42
2.995302
 10
135.428768
 20
210.45
 10
134.6
 20
210.45
 10
134.6
 20
213.45
 10
116.2
 20
213.45
 10
116.2
 20
213.75
 10
116.3
 20
213.75
 10
116.3
 20
216.25
 10
111.3
 20
216.25
 10
111.3
 20
219.9
  0
LWPOLYLINE
  5
49
102
{ACAD_REACTORS
330
42
102
}
100
AcDbEntity
  8
0
  6
CONTINUOUS
 62
     7
100
AcDbPolyline
 90
       59
 70
     1
 10
43.9
 20
220.55
 10
49.4
 20
220.55
 42
0.425418
 10
52.0
 20
223.05
 10
61.7
 20
223.05
 10
61.7
 20
219.9
 10
53.7
 20
219.9
 10
53.7
 20
216.25
 10
48.7
 20
216.25
 10
48.7
 20
213.75
 10
48.8
 20
213.75
 10
48.8
 20
213.45
 10
30.4
 20
213.45
 10
30.4
 20
210.45
 10
29.5
 20
210.45
 42
3.0
 10
29.5
 20
207.45
 10
30.4
 20
207.45
 10
30.4
 20
197.1
 10
25.4
 20
197.1
 10
25.4
 20
194.6
 10
30.4
 20
194.6
 10
30.4
 20
186.05
 10
31.5
 20
186.05
 10
31.5
 20
180.55
 42
0.414214
 10
32.5
 20
179.55
 10
55.5
 20
179.55
 42
0.414214
 10
56.5
 20
180.55
 10
56.5
 20
181.55
 10
58.5
 20
181.55
 10
63.6
 20
181.55
 10
63.75
 20
181.55
 42
0.940848
 10
63.75
 20
186.545496
 10
63.6
 20
186.55
 10
58.5
 20
186.55
 10
56.5
 20
186.55
 42
0.414214
 10
55.5
 20
187.55
 10
45.4
 20
187.55
 10
45.4
 20
190.95
 10
53.4
 20
190.95
 10
53.4
 20
194.55
 10
58.5
 20
194.55
 10
58.5
 20
197.4
 10
76.7
 20
197.4
 10
76.7
 20
200.4
 10
77.438495
 20
200.4
 42
2.998827
 10
77.363459
 20
203.4
 10
76.7
 20
203.4
 10
76.7
 20
213.75
 10
81.7
 20
213.75
 10
81.7
 20
216.25
 10
76.7
 20
216.25
 10
76.7
 20
224.85
 10
75.5
 20
224.85
 10
75.5
 20
230.05
 42
0.414214
 10
74.5
 20
231.05
 10
51.5
 20
231.05
 42
0.414214
 10
50.5
 20
230.05
 10
50.5
 20
225.341288
 42
0.113364
 10
49.4
 20
225.547999
 10
43.9
 20
225.55
 42
1.0
  0
LINE
  5
4A
102
{ACAD_REACTORS
330
42
102
}
100
AcDbEntity
  8
0
  6
CONTINUOUS
 62
     7
100
AcDbLine
 10
49.4
 20
220.552001
 30
0.0
 11
49.40008
 21
220.551998
 31
0.0
  0
LWPOLYLINE
  5
4C
102
{ACAD_REACTORS
330
4B
102
}
100
AcDbEntity
  8
0
  6
CONTINUOUS
 62
     7
100
AcDbPolyline
 90
        4
 70
     1
 10
5.0
 20
175.0
 10
5.0
 20
119.0
 10
147.0
 20
119.0
 10
147.0
 20
175.0
  0
LINE
  5
4D
102
{ACAD_REACTORS
330
4B
102
}
100
AcDbEntity
  8
0
  6
CONTINUOUS
 62
     7
100
AcDbLine
 10
27.3125
 20
161.5
 30
0.0
 11
34.9125
 21
161.5
 31
0.0
  0
LINE
  5
4E
102
{ACAD_REACTORS
330
4B
102
}
100
AcDbEntity
  8
0
  6
CONTINUOUS
 62
     7
100
AcDbLine
 10
34.9125
 20
161.5
 30
0.0
 11
34.9125
 21
166.5
 31
0.0
  0
LINE
  5
4F
102
{ACAD_REACTORS
330
4B
102
}
100
AcDbEntity
  8
0
  6
CONTINUOUS
 62
     7
100
AcDbLine
 10
34.9125
 20
166.5
 30
0.0
 11
37.4125
 21
166.5
 31
0.0
  0
LINE
  5
50
102
{ACAD_REACTORS
330
4B
102
}
100
AcDbEntity
  8
0
  6
CONTINUOUS
 62
     7
100
AcDbLine
 10
37.4125
 20
166.5
 30
0.0
 11
37.4125
 21
161.5
 31
0.0
  0
LINE
  5
51
102
{ACAD_REACTORS
330
4B
102
}
100
AcDbEntity
  8
0
  6
CONTINUOUS
 62
     7
100
AcDbLine
 10
37.4125
 20
161.5
 30
0.0
 11
47.7625
 21
161.5
 31
0.0
  0
LINE
  5
52
102
{ACAD_REACTORS
330
4B
102
}
100
AcDbEntity
  8
0
  6
CONTINUOUS
 62
     7
100
AcDbLine
 10
47.7625
 20
161.5
 30
0.0
 11
47.7625
 21
162.702476
 31
0.0
  0
ARC
  5
53
102
{ACAD_REACTORS
330
4B
102
}
100
AcDbEntity
  8
0
  6
CONTINUOUS
 62
     7
100
AcDbCircle
 10
49.5
 20
164.5
 30
0.0
 40
2.5
100
AcDbArc
 50
66.421822
 51
225.972783
  0
LINE
  5
54
102
{ACAD_REACTORS
330
4B
102
}
100
AcDbEntity
  8
0
  6
CONTINUOUS
 62
     7
100
AcDbLine
 10
50.5
 20
166.791288
 30
0.0
 11
50.5
 21
171.5
 31
0.0
  0
ARC
  5
55
102
{ACAD_REACTORS
330
4B
102
}
100
AcDbEntity
  8
0
  6
CONTINUOUS
 62
     7
100
AcDbCircle
 10
51.5
 20
171.5
 30
0.0
 40
1.0
100
AcDbArc
 50
90.0
 51
180.0
  0
LINE
  5
56
102
{ACAD_REACTORS
330
4B
102
}
100
AcDbEntity
  8
0
  6
CONTINUOUS
 62
     7
100
AcDbLine
 10
51.5
 20
172.5
 30
0.0
 11
74.5
 21
172.5
 31
0.0
  0
ARC
  5
57
102
{ACAD_REACTORS
330
4B
102
}
100
AcDbEntity
  8
0
  6
CONTINUOUS
 62
     7
100
AcDbCircle
 10
74.5
 20
171.5
 30
0.0
 40
1.0
100
AcDbArc
 50
0.0
 51
90.0
  0
LINE
  5
58
102
{ACAD_REACTORS
330
4B
102
}
100
AcDbEntity
  8
0
  6
CONTINUOUS
 62
     7
100
AcDbLine
 10
75.5
 20
171.5
 30
0.0
 11
75.5
 21
165.5
 31
0.0
  0
ARC
  5
59
102
{ACAD_REACTORS
330
4B
102
}
100
AcDbEntity
  8
0
  6
CONTINUOUS
 62
     7
100
AcDbCircle
 10
74.5
 20
165.5
 30
0.0
 40
1.0
100
AcDbArc
 50
270.0
 51
0.0
  0
LINE
  5
5A
102
{ACAD_REACTORS
330
4B
102
}
100
AcDbEntity
  8
0
  6
CONTINUOUS
 62
     7
100
AcDbLine
 10
74.5
 20
164.5
 30
0.0
 11
52.0
 21
164.5
 31
0.0
  0
ARC
  5
5B
102
{ACAD_REACTORS
330
4B
102
}
100
AcDbEntity
  8
0
  6
CONTINUOUS
 62
     7
100
AcDbCircle
 10
49.5
 20
164.5
 30
0.0
 40
2.5
100
AcDbArc
 50
300.331352
 51
0.0
  0
LINE
  5
5C
102
{ACAD_REACTORS
330
4B
102
}
100
AcDbEntity
  8
0
  6
CONTINUOUS
 62
     7
100
AcDbLine
 10
50.7625
 20
162.342202
 30
0.0
 11
50.7625
 21
161.5
 31
0.0
  0
LINE
  5
5D
102
{ACAD_REACTORS
330
4B
102
}
100
AcDbEntity
  8
0
  6
CONTINUOUS
 62
     7
100
AcDbLine
 10
50.7625
 20
161.5
 30
0.0
 11
53.7625
 21
161.5
 31
0.0
  0
LINE
  5
5E
102
{ACAD_REACTORS
330
4B
102
}
100
AcDbEntity
  8
0
  6
CONTINUOUS
 62
     7
100
AcDbLine
 10
53.7625
 20
161.5
 30
0.0
 11
53.7625
 21
151.5
 31
0.0
  0
LINE
  5
5F
102
{ACAD_REACTORS
330
4B
102
}
100
AcDbEntity
  8
0
  6
CONTINUOUS
 62
     7
100
AcDbLine
 10
53.7625
 20
151.5
 30
0.0
 11
70.3875
 21
151.5
 31
0.0
  0
LINE
  5
60
102
{ACAD_REACTORS
330
4B
102
}
100
AcDbEntity
  8
0
  6
CONTINUOUS
 62
     7
100
AcDbLine
 10
70.3875
 20
151.5
 30
0.0
 11
70.3875
 21
156.5
 31
0.0
  0
LINE
  5
61
102
{ACAD_REACTORS
330
4B
102
}
100
AcDbEntity
  8
0
  6
CONTINUOUS
 62
     7
100
AcDbLine
 10
70.3875
 20
156.5
 30
0.0
 11
72.8875
 21
156.5
 31
0.0
  0
LINE
  5
62
102
{ACAD_REACTORS
330
4B
102
}
100
AcDbEntity
  8
0
  6
CONTINUOUS
 62
     7
100
AcDbLine
 10
72.8875
 20
156.5
 30
0.0
 11
72.8875
 21
151.5
 31
0.0
  0
LINE
  5
63
102
{ACAD_REACTORS
330
4B
102
}
100
AcDbEntity
  8
0
  6
CONTINUOUS
 62
     7
100
AcDbLine
 10
72.8875
 20
151.5
 30
0.0
 11
76.5375
 21
151.5
 31
0.0
  0
LINE
  5
64
102
{ACAD_REACTORS
330
4B
102
}
100
AcDbEntity
  8
0
  6
CONTINUOUS
 62
     7
100
AcDbLine
 10
76.5375
 20
151.5
 30
0.0
 11
76.5375
 21
143.5
 31
0.0
  0
LINE
  5
65
102
{ACAD_REACTORS
330
4B
102
}
100
AcDbEntity
  8
0
  6
CONTINUOUS
 62
     7
100
AcDbLine
 10
76.5375
 20
143.5
 30
0.0
 11
79.5
 21
143.5
 31
0.0
  0
LINE
  5
66
102
{ACAD_REACTORS
330
4B
102
}
100
AcDbEntity
  8
0
  6
CONTINUOUS
 62
     7
100
AcDbLine
 10
79.5
 20
143.5
 30
0.0
 11
79.5
 21
153.5
 31
0.0
  0
ARC
  5
67
102
{ACAD_REACTORS
330
4B
102
}
100
AcDbEntity
  8
0
  6
CONTINUOUS
 62
     7
100
AcDbCircle
 10
80.5
 20
153.5
 30
0.0
 40
1.0
100
AcDbArc
 50
90.0
 51
180.0
  0
LINE
  5
68
102
{ACAD_REACTORS
330
4B
102
}
100
AcDbEntity
  8
0
  6
CONTINUOUS
 62
     7
100
AcDbLine
 10
80.5
 20
154.5
 30
0.0
 11
86.5
 21
154.5
 31
0.0
  0
ARC
  5
69
102
{ACAD_REACTORS
330
4B
102
}
100
AcDbEntity
  8
0
  6
CONTINUOUS
 62
     7
100
AcDbCircle
 10
86.5
 20
153.5
 30
0.0
 40
1.0
100
AcDbArc
 50
0.0
 51
90.0
  0
LINE
  5
6A
102
{ACAD_REACTORS
330
4B
102
}
100
AcDbEntity
  8
0
  6
CONTINUOUS
 62
     7
100
AcDbLine
 10
87.5
 20
153.5
 30
0.0
 11
87.5
 21
130.5
 31
0.0
  0
ARC
  5
6B
102
{ACAD_REACTORS
330
4B
102
}
100
AcDbEntity
  8
0
  6
CONTINUOUS
 62
     7
100
AcDbCircle
 10
86.5
 20
130.5
 30
0.0
 40
1.0
100
AcDbArc
 50
270.0
 51
0.0
  0
LINE
  5
6C
102
{ACAD_REACTORS
330
4B
102
}
100
AcDbEntity
  8
0
  6
CONTINUOUS
 62
     7
100
AcDbLine
 10
86.5
 20
129.5
 30
0.0
 11
81.5
 21
129.5
 31
0.0
  0
LINE
  5
6D
102
{ACAD_REACTORS
330
4B
102
}
100
AcDbEntity
  8
0
  6
CONTINUOUS
 62
     7
100
AcDbLine
 10
81.5
 20
129.5
 30
0.0
 11
81.5
 21
128.5
 31
0.0
  0
LINE
  5
6E
102
{ACAD_REACTORS
330
4B
102
}
100
AcDbEntity
  8
0
  6
CONTINUOUS
 62
     7
100
AcDbLine
 10
81.5
 20
128.5
 30
0.0
 11
72.8875
 21
128.5
 31
0.0
  0
LINE
  5
6F
102
{ACAD_REACTORS
330
4B
102
}
100
AcDbEntity
  8
0
  6
CONTINUOUS
 62
     7
100
AcDbLine
 10
72.8875
 20
128.5
 30
0.0
 11
72.8875
 21
123.5
 31
0.0
  0
LINE
  5
70
102
{ACAD_REACTORS
330
4B
102
}
100
AcDbEntity
  8
0
  6
CONTINUOUS
 62
     7
100
AcDbLine
 10
72.8875
 20
123.5
 30
0.0
 11
70.3875
 21
123.5
 31
0.0
  0
LINE
  5
71
102
{ACAD_REACTORS
330
4B
102
}
100
AcDbEntity
  8
0
  6
CONTINUOUS
 62
     7
100
AcDbLine
 10
70.3875
 20
123.5
 30
0.0
 11
70.3875
 21
128.5
 31
0.0
  0
LINE
  5
72
102
{ACAD_REACTORS
330
4B
102
}
100
AcDbEntity
  8
0
  6
CONTINUOUS
 62
     7
100
AcDbLine
 10
70.3875
 20
128.5
 30
0.0
 11
60.0375
 21
128.5
 31
0.0
  0
LINE
  5
73
102
{ACAD_REACTORS
330
4B
102
}
100
AcDbEntity
  8
0
  6
CONTINUOUS
 62
     7
100
AcDbLine
 10
60.0375
 20
128.5
 30
0.0
 11
60.0375
 21
127.471318
 31
0.0
  0
ARC
  5
74
102
{ACAD_REACTORS
330
4B
102
}
100
AcDbEntity
  8
0
  6
CONTINUOUS
 62
     7
100
AcDbCircle
 10
58.5
 20
125.5
 30
0.0
 40
2.5
100
AcDbArc
 50
216.869898
 51
52.04808
  0
LINE
  5
75
102
{ACAD_REACTORS
330
4B
102
}
100
AcDbEntity
  8
0
  6
CONTINUOUS
 62
     7
100
AcDbLine
 10
56.5
 20
124.0
 30
0.0
 11
56.5
 21
122.0
 31
0.0
  0
ARC
  5
76
102
{ACAD_REACTORS
330
4B
102
}
100
AcDbEntity
  8
0
  6
CONTINUOUS
 62
     7
100
AcDbCircle
 10
55.5
 20
122.0
 30
0.0
 40
1.0
100
AcDbArc
 50
270.0
 51
0.0
  0
LINE
  5
77
102
{ACAD_REACTORS
330
4B
102
}
100
AcDbEntity
  8
0
  6
CONTINUOUS
 62
     7
100
AcDbLine
 10
55.5
 20
121.0
 30
0.0
 11
32.5
 21
121.0
 31
0.0
  0
ARC
  5
78
102
{ACAD_REACTORS
330
4B
102
}
100
AcDbEntity
  8
0
  6
CONTINUOUS
 62
     7
100
AcDbCircle
 10
32.5
 20
122.0
 30
0.0
 40
1.0
100
AcDbArc
 50
180.0
 51
270.0
  0
LINE
  5
79
102
{ACAD_REACTORS
330
4B
102
}
100
AcDbEntity
  8
0
  6
CONTINUOUS
 62
     7
100
AcDbLine
 10
31.5
 20
122.0
 30
0.0
 11
31.5
 21
128.0
 31
0.0
  0
ARC
  5
7A
102
{ACAD_REACTORS
330
4B
102
}
100
AcDbEntity
  8
0
  6
CONTINUOUS
 62
     7
100
AcDbCircle
 10
32.5
 20
128.0
 30
0.0
 40
1.0
100
AcDbArc
 50
90.0
 51
180.0
  0
LINE
  5
7B
102
{ACAD_REACTORS
330
4B
102
}
100
AcDbEntity
  8
0
  6
CONTINUOUS
 62
     7
100
AcDbLine
 10
32.5
 20
129.0
 30
0.0
 11
54.0375
 21
129.0
 31
0.0
  0
LINE
  5
7C
102
{ACAD_REACTORS
330
4B
102
}
100
AcDbEntity
  8
0
  6
CONTINUOUS
 62
     7
100
AcDbLine
 10
54.0375
 20
129.0
 30
0.0
 11
54.0375
 21
138.5
 31
0.0
  0
LINE
  5
7D
102
{ACAD_REACTORS
330
4B
102
}
100
AcDbEntity
  8
0
  6
CONTINUOUS
 62
     7
100
AcDbLine
 10
54.0375
 20
138.5
 30
0.0
 11
37.4125
 21
138.5
 31
0.0
  0
LINE
  5
7E
102
{ACAD_REACTORS
330
4B
102
}
100
AcDbEntity
  8
0
  6
CONTINUOUS
 62
     7
100
AcDbLine
 10
37.4125
 20
138.5
 30
0.0
 11
37.4125
 21
133.5
 31
0.0
  0
LINE
  5
7F
102
{ACAD_REACTORS
330
4B
102
}
100
AcDbEntity
  8
0
  6
CONTINUOUS
 62
     7
100
AcDbLine
 10
37.4125
 20
133.5
 30
0.0
 11
34.9125
 21
133.5
 31
0.0
  0
LINE
  5
80
102
{ACAD_REACTORS
330
4B
102
}
100
AcDbEntity
  8
0
  6
CONTINUOUS
 62
     7
100
AcDbLine
 10
34.9125
 20
133.5
 30
0.0
 11
34.9125
 21
138.5
 31
0.0
  0
LINE
  5
81
102
{ACAD_REACTORS
330
4B
102
}
100
AcDbEntity
  8
0
  6
CONTINUOUS
 62
     7
100
AcDbLine
 10
34.9125
 20
138.5
 30
0.0
 11
31.2625
 21
138.5
 31
0.0
  0
LINE
  5
82
102
{ACAD_REACTORS
330
4B
102
}
100
AcDbEntity
  8
0
  6
CONTINUOUS
 62
     7
100
AcDbLine
 10
31.2625
 20
138.5
 30
0.0
 11
31.2625
 21
146.5
 31
0.0
  0
LINE
  5
83
102
{ACAD_REACTORS
330
4B
102
}
100
AcDbEntity
  8
0
  6
CONTINUOUS
 62
     7
100
AcDbLine
 10
31.2625
 20
146.5
 30
0.0
 11
29.0
 21
146.5
 31
0.0
  0
LINE
  5
84
102
{ACAD_REACTORS
330
4B
102
}
100
AcDbEntity
  8
0
  6
CONTINUOUS
 62
     7
100
AcDbLine
 10
29.0
 20
146.5
 30
0.0
 11
29.0
 21
136.0
 31
0.0
  0
ARC
  5
85
102
{ACAD_REACTORS
330
4B
102
}
100
AcDbEntity
  8
0
  6
CONTINUOUS
 62
     7
100
AcDbCircle
 10
28.0
 20
136.0
 30
0.0
 40
1.0
100
AcDbArc
 50
270.0
 51
0.0
  0
LINE
  5
86
102
{ACAD_REACTORS
330
4B
102
}
100
AcDbEntity
  8
0
  6
CONTINUOUS
 62
     7
100
AcDbLine
 10
28.0
 20
135.0
 30
0.0
 11
22.0
 21
135.0
 31
0.0
  0
ARC
  5
87
102
{ACAD_REACTORS
330
4B
102
}
100
AcDbEntity
  8
0
  6
CONTINUOUS
 62
     7
100
AcDbCircle
 10
22.0
 20
136.0
 30
0.0
 40
1.0
100
AcDbArc
 50
180.0
 51
270.0
  0
LINE
  5
88
102
{ACAD_REACTORS
330
4B
102
}
100
AcDbEntity
  8
0
  6
CONTINUOUS
 62
     7
100
AcDbLine
 10
21.0
 20
136.0
 30
0.0
 11
21.0
 21
159.0
 31
0.0
  0
ARC
  5
89
102
{ACAD_REACTORS
330
4B
102
}
100
AcDbEntity
  8
0
  6
CONTINUOUS
 62
     7
100
AcDbCircle
 10
22.0
 20
159.0
 30
0.0
 40
1.0
100
AcDbArc
 50
90.0
 51
180.0
  0
LINE
  5
8A
102
{ACAD_REACTORS
330
4B
102
}
100
AcDbEntity
  8
0
  6
CONTINUOUS
 62
     7
100
AcDbLine
 10
22.0
 20
160.0
 30
0.0
 11
27.3125
 21
160.0
 31
0.0
  0
LINE
  5
8B
102
{ACAD_REACTORS
330
4B
102
}
100
AcDbEntity
  8
0
  6
CONTINUOUS
 62
     7
100
AcDbLine
 10
27.3125
 20
160.0
 30
0.0
 11
27.3
 21
161.5
 31
0.0
  0
LWPOLYLINE
  5
8C
102
{ACAD_REACTORS
330
4B
102
}
100
AcDbEntity
  8
0
  6
CONTINUOUS
 62
     7
100
AcDbPolyline
 90
        8
 70
     1
 10
108.5
 20
128.0
 42
-0.414214
 10
109.5
 20
129.0
 10
132.5
 20
129.0
 42
-0.414214
 10
133.5
 20
128.0
 10
133.5
 20
122.0
 42
-0.414214
 10
132.5
 20
121.0
 10
109.5
 20
121.0
 42
-0.414214
 10
108.5
 20
122.0
  0
CIRCLE
  5
8D
102
{ACAD_REACTORS
330
4B
102
}
100
AcDbEntity
  8
0
  6
CONTINUOUS
 62
     7
100
AcDbCircle
 10
10.4
 20
124.5
 30
0.0
 40
2.5
  0
CIRCLE
  5
8E
102
{ACAD_REACTORS
330
4B
102
}
100
AcDbEntity
  8
0
  6
CONTINUOUS
 62
     7
100
AcDbCircle
 10
141.5
 20
124.5
 30
0.0
 40
2.5
  0
CIRCLE
  5
8F
102
{ACAD_REACTORS
330
4B
102
}
100
AcDbEntity
  8
0
  6
CONTINUOUS
 62
     7
100
AcDbCircle
 10
141.5
 20
169.5
 30
0.0
 40
2.5
  0
CIRCLE
  5
90
102
{ACAD_REACTORS
330
4B
102
}
100
AcDbEntity
  8
0
  6
CONTINUOUS
 62
     7
100
AcDbCircle
 10
10.4
 20
169.5
 30
0.0
 40
2.5
  0
LWPOLYLINE
  5
91
102
{ACAD_REACTORS
330
4B
102
}
100
AcDbEntity
  8
0
  6
CONTINUOUS
 62
     7
100
AcDbPolyline
 90
       31
 70
     1
 10
134.4
 20
158.0
 10
139.8
 20
158.0
 42
-0.414214
 10
140.8
 20
157.0
 10
140.8
 20
134.0
 42
-0.414214
 10
139.8
 20
133.0
 10
133.8
 20
133.0
 42
-0.414214
 10
132.8
 20
134.0
 10
132.8
 20
144.5
 10
129.4
 20
144.5
 10
129.4
 20
136.5
 10
125.75
 20
136.5
 10
125.75
 20
131.5
 10
123.25
 20
131.5
 10
123.25
 20
136.5
 10
106.9
 20
136.5
 10
106.9
 20
164.5
 10
90.5
 20
164.5
 42
-0.414214
 10
89.5
 20
165.5
 10
89.5
 20
171.5
 42
-0.414214
 10
90.5
 20
172.5
 10
113.5
 20
172.5
 42
-0.414214
 10
114.5
 20
171.5
 10
114.5
 20
166.0
 10
116.9
 20
166.0
 42
-0.414214
 10
117.9
 20
165.0
 10
117.9
 20
159.5
 10
123.25
 20
159.5
 10
123.25
 20
164.5
 10
125.75
 20
164.5
 10
125.75
 20
159.5
 10
134.4
 20
159.5
  0
LWPOLYLINE
  5
93
102
{ACAD_REACTORS
330
92
102
}
100
AcDbEntity
  8
0
  6
CONTINUOUS
 62
     7
100
AcDbPolyline
 90
        4
 70
     1
 10
5.0
 20
116.5
 10
5.0
 20
60.5
 10
147.0
 20
60.5
 10
147.0
 20
116.5
  0
CIRCLE
  5
94
102
{ACAD_REACTORS
330
92
102
}
100
AcDbEntity
  8
0
  6
CONTINUOUS
 62
     7
100
AcDbCircle
 10
141.5
 20
66.05
 30
0.0
 40
2.5
  0
CIRCLE
  5
95
102
{ACAD_REACTORS
330
92
102
}
100
AcDbEntity
  8
0
  6
CONTINUOUS
 62
     7
100
AcDbCircle
 10
10.4
 20
111.05
 30
0.0
 40
2.5
  0
CIRCLE
  5
96
102
{ACAD_REACTORS
330
92
102
}
100
AcDbEntity
  8
0
  6
CONTINUOUS
 62
     7
100
AcDbCircle
 10
141.5
 20
111.05
 30
0.0
 40
2.5
  0
CIRCLE
  5
97
102
{ACAD_REACTORS
330
92
102
}
100
AcDbEntity
  8
0
  6
CONTINUOUS
 62
     7
100
AcDbCircle
 10
10.4
 20
66.05
 30
0.0
 40
2.5
  0
LWPOLYLINE
  5
98
102
{ACAD_REACTORS
330
92
102
}
100
AcDbEntity
  8
0
  6
CONTINUOUS
 62
     7
100
AcDbPolyline
 90
       54
 70
     1
 10
103.3
 20
102.9
 10
103.3
 20
106.05
 10
112.5
 20
106.05
 42
0.720759
 10
114.0
 20
101.55
 10
119.0
 20
101.55
 10
119.25
 20
101.55
 42
0.902264
 10
119.25
 20
106.537469
 10
119.0
 20
106.55
 10
114.351228
 20
106.55
 42
0.157795
 10
114.5
 20
107.05
 10
114.5
 20
113.05
 42
0.414214
 10
113.5
 20
114.05
 10
90.5
 20
114.05
 42
0.414214
 10
89.5
 20
113.05
 10
89.5
 20
107.85
 10
88.3
 20
107.85
 10
88.3
 20
99.25
 10
83.3
 20
99.25
 10
83.3
 20
96.75
 10
88.3
 20
96.75
 10
88.3
 20
86.4
 10
87.636541
 20
86.4
 42
2.998827
 10
87.561505
 20
83.4
 10
88.3
 20
83.4
 10
88.3
 20
80.4
 10
106.6
 20
80.4
 10
106.6
 20
77.55
 10
111.6
 20
77.55
 10
111.6
 20
73.95
 10
119.6
 20
73.95
 10
119.6
 20
70.55
 10
109.5
 20
70.55
 42
0.414214
 10
108.5
 20
69.55
 10
108.5
 20
63.55
 42
0.414214
 10
109.5
 20
62.55
 10
132.5
 20
62.55
 42
0.414214
 10
133.5
 20
63.55
 10
133.5
 20
68.95
 10
134.6
 20
68.95
 10
134.6
 20
77.6
 10
139.6
 20
77.6
 10
139.6
 20
80.1
 10
134.6
 20
80.1
 10
134.6
 20
90.45
 10
135.579063
 20
90.45
 42
2.995302
 10
135.428768
 20
93.45
 10
134.6
 20
93.45
 10
134.6
 20
96.45
 10
116.2
 20
96.45
 10
116.2
 20
96.75
 10
116.3
 20
96.75
 10
116.3
 20
99.25
 10
111.3
 20
99.25
 10
111.3
 20
102.9
  0
LWPOLYLINE
  5
99
102
{ACAD_REACTORS
330
92
102
}
100
AcDbEntity
  8
0
  6
CONTINUOUS
 62
     7
100
AcDbPolyline
 90
       59
 70
     1
 10
43.9
 20
103.55
 10
49.4
 20
103.55
 42
0.425418
 10
52.0
 20
106.05
 10
61.7
 20
106.05
 10
61.7
 20
102.9
 10
53.7
 20
102.9
 10
53.7
 20
99.25
 10
48.7
 20
99.25
 10
48.7
 20
96.75
 10
48.8
 20
96.75
 10
48.8
 20
96.45
 10
30.4
 20
96.45
 10
30.4
 20
93.45
 10
29.5
 20
93.45
 42
3.0
 10
29.5
 20
90.45
 10
30.4
 20
90.45
 10
30.4
 20
80.1
 10
25.4
 20
80.1
 10
25.4
 20
77.6
 10
30.4
 20
77.6
 10
30.4
 20
69.05
 10
31.5
 20
69.05
 10
31.5
 20
63.55
 42
0.414214
 10
32.5
 20
62.55
 10
55.5
 20
62.55
 42
0.414214
 10
56.5
 20
63.55
 10
56.5
 20
64.55
 10
58.5
 20
64.55
 10
63.6
 20
64.55
 10
63.75
 20
64.55
 42
0.940848
 10
63.75
 20
69.545496
 10
63.6
 20
69.55
 10
58.5
 20
69.55
 10
56.5
 20
69.55
 42
0.414214
 10
55.5
 20
70.55
 10
45.4
 20
70.55
 10
45.4
 20
73.95
 10
53.4
 20
73.95
 10
53.4
 20
77.55
 10
58.5
 20
77.55
 10
58.5
 20
80.4
 10
76.7
 20
80.4
 10
76.7
 20
83.4
 10
77.438495
 20
83.4
 42
2.998827
 10
77.363459
 20
86.4
 10
76.7
 20
86.4
 10
76.7
 20
96.75
 10
81.7
 20
96.75
 10
81.7
 20
99.25
 10
76.7
 20
99.25
 10
76.7
 20
107.85
 10
75.5
 20
107.85
 10
75.5
 20
113.05
 42
0.414214
 10
74.5
 20
114.05
 10
51.5
 20
114.05
 42
0.414214
 10
50.5
 20
113.05
 10
50.5
 20
108.341288
 42
0.113364
 10
49.4
 20
108.547999
 10
43.9
 20
108.55
 42
1.0
  0
LINE
  5
9A
102
{ACAD_REACTORS
330
92
102
}
100
AcDbEntity
  8
0
  6
CONTINUOUS
 62
     7
100
AcDbLine
 10
49.4
 20
103.552001
 30
0.0
 11
49.40008
 21
103.551998
 31
0.0
  0
LWPOLYLINE
  5
9C
102
{ACAD_REACTORS
330
9B
102
}
100
AcDbEntity
  8
0
  6
CONTINUOUS
 62
     7
100
AcDbPolyline
 90
        4
 70
     1
 10
5.0
 20
58.0
 10
5.0
 20
2.0
 10
147.0
 20
2.0
 10
147.0
 20
58.0
  0
LINE
  5
9D
102
{ACAD_REACTORS
330
9B
102
}
100
AcDbEntity
  8
0
  6
CONTINUOUS
 62
     7
100
AcDbLine
 10
27.3125
 20
44.5
 30
0.0
 11
34.9125
 21
44.5
 31
0.0
  0
LINE
  5
9E
102
{ACAD_REACTORS
330
9B
102
}
100
AcDbEntity
  8
0
  6
CONTINUOUS
 62
     7
100
AcDbLine
 10
34.9125
 20
44.5
 30
0.0
 11
34.9125
 21
49.5
 31
0.0
  0
LINE
  5
9F
102
{ACAD_REACTORS
330
9B
102
}
100
AcDbEntity
  8
0
  6
CONTINUOUS
 62
     7
100
AcDbLine
 10
34.9125
 20
49.5
 30
0.0
 11
37.4125
 21
49.5
 31
0.0
  0
LINE
  5
A0
102
{ACAD_REACTORS
330
9B
102
}
100
AcDbEntity
  8
0
  6
CONTINUOUS
 62
     7
100
AcDbLine
 10
37.4125
 20
49.5
 30
0.0
 11
37.4125
 21
44.5
 31
0.0
  0
LINE
  5
A1
102
{ACAD_REACTORS
330
9B
102
}
100
AcDbEntity
  8
0
  6
CONTINUOUS
 62
     7
100
AcDbLine
 10
37.4125
 20
44.5
 30
0.0
 11
47.7625
 21
44.5
 31
0.0
  0
LINE
  5
A2
102
{ACAD_REACTORS
330
9B
102
}
100
AcDbEntity
  8
0
  6
CONTINUOUS
 62
     7
100
AcDbLine
 10
47.7625
 20
44.5
 30
0.0
 11
47.7625
 21
45.702476
 31
0.0
  0
ARC
  5
A3
102
{ACAD_REACTORS
330
9B
102
}
100
AcDbEntity
  8
0
  6
CONTINUOUS
 62
     7
100
AcDbCircle
 10
49.5
 20
47.5
 30
0.0
 40
2.5
100
AcDbArc
 50
66.421822
 51
225.972783
  0
LINE
  5
A4
102
{ACAD_REACTORS
330
9B
102
}
100
AcDbEntity
  8
0
  6
CONTINUOUS
 62
     7
100
AcDbLine
 10
50.5
 20
49.791288
 30
0.0
 11
50.5
 21
54.5
 31
0.0
  0
ARC
  5
A5
102
{ACAD_REACTORS
330
9B
102
}
100
AcDbEntity
  8
0
  6
CONTINUOUS
 62
     7
100
AcDbCircle
 10
51.5
 20
54.5
 30
0.0
 40
1.0
100
AcDbArc
 50
90.0
 51
180.0
  0
LINE
  5
A6
102
{ACAD_REACTORS
330
9B
102
}
100
AcDbEntity
  8
0
  6
CONTINUOUS
 62
     7
100
AcDbLine
 10
51.5
 20
55.5
 30
0.0
 11
74.5
 21
55.5
 31
0.0
  0
ARC
  5
A7
102
{ACAD_REACTORS
330
9B
102
}
100
AcDbEntity
  8
0
  6
CONTINUOUS
 62
     7
100
AcDbCircle
 10
74.5
 20
54.5
 30
0.0
 40
1.0
100
AcDbArc
 50
0.0
 51
90.0
  0
LINE
  5
A8
102
{ACAD_REACTORS
330
9B
102
}
100
AcDbEntity
  8
0
  6
CONTINUOUS
 62
     7
100
AcDbLine
 10
75.5
 20
54.5
 30
0.0
 11
75.5
 21
48.5
 31
0.0
  0
ARC
  5
A9
102
{ACAD_REACTORS
330
9B
102
}
100
AcDbEntity
  8
0
  6
CONTINUOUS
 62
     7
100
AcDbCircle
 10
74.5
 20
48.5
 30
0.0
 40
1.0
100
AcDbArc
 50
270.0
 51
0.0
  0
LINE
  5
AA
102
{ACAD_REACTORS
330
9B
102
}
100
AcDbEntity
  8
0
  6
CONTINUOUS
 62
     7
100
AcDbLine
 10
74.5
 20
47.5
 30
0.0
 11
52.0
 21
47.5
 31
0.0
  0
ARC
  5
AB
102
{ACAD_REACTORS
330
9B
102
}
100
AcDbEntity
  8
0
  6
CONTINUOUS
 62
     7
100
AcDbCircle
 10
49.5
 20
47.5
 30
0.0
 40
2.5
100
AcDbArc
 50
300.331352
 51
0.0
  0
LINE
  5
AC
102
{ACAD_REACTORS
330
9B
102
}
100
AcDbEntity
  8
0
  6
CONTINUOUS
 62
     7
100
AcDbLine
 10
50.7625
 20
45.342202
 30
0.0
 11
50.7625
 21
44.5
 31
0.0
  0
LINE
  5
AD
102
{ACAD_REACTORS
330
9B
102
}
100
AcDbEntity
  8
0
  6
CONTINUOUS
 62
     7
100
AcDbLine
 10
50.7625
 20
44.5
 30
0.0
 11
53.7625
 21
44.5
 31
0.0
  0
LINE
  5
AE
102
{ACAD_REACTORS
330
9B
102
}
100
AcDbEntity
  8
0
  6
CONTINUOUS
 62
     7
100
AcDbLine
 10
53.7625
 20
44.5
 30
0.0
 11
53.7625
 21
34.5
 31
0.0
  0
LINE
  5
AF
102
{ACAD_REACTORS
330
9B
102
}
100
AcDbEntity
  8
0
  6
CONTINUOUS
 62
     7
100
AcDbLine
 10
53.7625
 20
34.5
 30
0.0
 11
70.3875
 21
34.5
 31
0.0
  0
LINE
  5
B0
102
{ACAD_REACTORS
330
9B
102
}
100
AcDbEntity
  8
0
  6
CONTINUOUS
 62
     7
100
AcDbLine
 10
70.3875
 20
34.5
 30
0.0
 11
70.3875
 21
39.5
 31
0.0
  0
LINE
  5
B1
102
{ACAD_REACTORS
330
9B
102
}
100
AcDbEntity
  8
0
  6
CONTINUOUS
 62
     7
100
AcDbLine
 10
70.3875
 20
39.5
 30
0.0
 11
72.8875
 21
39.5
 31
0.0
  0
LINE
  5
B2
102
{ACAD_REACTORS
330
9B
102
}
100
AcDbEntity
  8
0
  6
CONTINUOUS
 62
     7
100
AcDbLine
 10
72.8875
 20
39.5
 30
0.0
 11
72.8875
 21
34.5
 31
0.0
  0
LINE
  5
B3
102
{ACAD_REACTORS
330
9B
102
}
100
AcDbEntity
  8
0
  6
CONTINUOUS
 62
     7
100
AcDbLine
 10
72.8875
 20
34.5
 30
0.0
 11
76.5375
 21
34.5
 31
0.0
  0
LINE
  5
B4
102
{ACAD_REACTORS
330
9B
102
}
100
AcDbEntity
  8
0
  6
CONTINUOUS
 62
     7
100
AcDbLine
 10
76.5375
 20
34.5
 30
0.0
 11
76.5375
 21
26.5
 31
0.0
  0
LINE
  5
B5
102
{ACAD_REACTORS
330
9B
102
}
100
AcDbEntity
  8
0
  6
CONTINUOUS
 62
     7
100
AcDbLine
 10
76.5375
 20
26.5
 30
0.0
 11
79.5
 21
26.5
 31
0.0
  0
LINE
  5
B6
102
{ACAD_REACTORS
330
9B
102
}
100
AcDbEntity
  8
0
  6
CONTINUOUS
 62
     7
100
AcDbLine
 10
79.5
 20
26.5
 30
0.0
 11
79.5
 21
36.5
 31
0.0
  0
ARC
  5
B7
102
{ACAD_REACTORS
330
9B
102
}
100
AcDbEntity
  8
0
  6
CONTINUOUS
 62
     7
100
AcDbCircle
 10
80.5
 20
36.5
 30
0.0
 40
1.0
100
AcDbArc
 50
90.0
 51
180.0
  0
LINE
  5
B8
102
{ACAD_REACTORS
330
9B
102
}
100
AcDbEntity
  8
0
  6
CONTINUOUS
 62
     7
100
AcDbLine
 10
80.5
 20
37.5
 30
0.0
 11
86.5
 21
37.5
 31
0.0
  0
ARC
  5
B9
102
{ACAD_REACTORS
330
9B
102
}
100
AcDbEntity
  8
0
  6
CONTINUOUS
 62
     7
100
AcDbCircle
 10
86.5
 20
36.5
 30
0.0
 40
1.0
100
AcDbArc
 50
0.0
 51
90.0
  0
LINE
  5
BA
102
{ACAD_REACTORS
330
9B
102
}
100
AcDbEntity
  8
0
  6
CONTINUOUS
 62
     7
100
AcDbLine
 10
87.5
 20
36.5
 30
0.0
 11
87.5
 21
13.5
 31
0.0
  0
ARC
  5
BB
102
{ACAD_REACTORS
330
9B
102
}
100
AcDbEntity
  8
0
  6
CONTINUOUS
 62
     7
100
AcDbCircle
 10
86.5
 20
13.5
 30
0.0
 40
1.0
100
AcDbArc
 50
270.0
 51
0.0
  0
LINE
  5
BC
102
{ACAD_REACTORS
330
9B
102
}
100
AcDbEntity
  8
0
  6
CONTINUOUS
 62
     7
100
AcDbLine
 10
86.5
 20
12.5
 30
0.0
 11
81.5
 21
12.5
 31
0.0
  0
LINE
  5
BD
102
{ACAD_REACTORS
330
9B
102
}
100
AcDbEntity
  8
0
  6
CONTINUOUS
 62
     7
100
AcDbLine
 10
81.5
 20
12.5
 30
0.0
 11
81.5
 21
11.5
 31
0.0
  0
LINE
  5
BE
102
{ACAD_REACTORS
330
9B
102
}
100
AcDbEntity
  8
0
  6
CONTINUOUS
 62
     7
100
AcDbLine
 10
81.5
 20
11.5
 30
0.0
 11
72.8875
 21
11.5
 31
0.0
  0
LINE
  5
BF
102
{ACAD_REACTORS
330
9B
102
}
100
AcDbEntity
  8
0
  6
CONTINUOUS
 62
     7
100
AcDbLine
 10
72.8875
 20
11.5
 30
0.0
 11
72.8875
 21
6.5
 31
0.0
  0
LINE
  5
C0
102
{ACAD_REACTORS
330
9B
102
}
100
AcDbEntity
  8
0
  6
CONTINUOUS
 62
     7
100
AcDbLine
 10
72.8875
 20
6.5
 30
0.0
 11
70.3875
 21
6.5
 31
0.0
  0
LINE
  5
C1
102
{ACAD_REACTORS
330
9B
102
}
100
AcDbEntity
  8
0
  6
CONTINUOUS
 62
     7
100
AcDbLine
 10
70.3875
 20
6.5
 30
0.0
 11
70.3875
 21
11.5
 31
0.0
  0
LINE
  5
C2
102
{ACAD_REACTORS
330
9B
102
}
100
AcDbEntity
  8
0
  6
CONTINUOUS
 62
     7
100
AcDbLine
 10
70.3875
 20
11.5
 30
0.0
 11
60.0375
 21
11.5
 31
0.0
  0
LINE
  5
C3
102
{ACAD_REACTORS
330
9B
102
}
100
AcDbEntity
  8
0
  6
CONTINUOUS
 62
     7
100
AcDbLine
 10
60.0375
 20
11.5
 30
0.0
 11
60.0375
 21
10.471318
 31
0.0
  0
ARC
  5
C4
102
{ACAD_REACTORS
330
9B
102
}
100
AcDbEntity
  8
0
  6
CONTINUOUS
 62
     7
100
AcDbCircle
 10
58.5
 20
8.5
 30
0.0
 40
2.5
100
AcDbArc
 50
216.869898
 51
52.04808
  0
LINE
  5
C5
102
{ACAD_REACTORS
330
9B
102
}
100
AcDbEntity
  8
0
  6
CONTINUOUS
 62
     7
100
AcDbLine
 10
56.5
 20
7.0
 30
0.0
 11
56.5
 21
5.0
 31
0.0
  0
ARC
  5
C6
102
{ACAD_REACTORS
330
9B
102
}
100
AcDbEntity
  8
0
  6
CONTINUOUS
 62
     7
100
AcDbCircle
 10
55.5
 20
5.0
 30
0.0
 40
1.0
100
AcDbArc
 50
270.0
 51
0.0
  0
LINE
  5
C7
102
{ACAD_REACTORS
330
9B
102
}
100
AcDbEntity
  8
0
  6
CONTINUOUS
 62
     7
100
AcDbLine
 10
55.5
 20
4.0
 30
0.0
 11
32.5
 21
4.0
 31
0.0
  0
ARC
  5
C8
102
{ACAD_REACTORS
330
9B
102
}
100
AcDbEntity
  8
0
  6
CONTINUOUS
 62
     7
100
AcDbCircle
 10
32.5
 20
5.0
 30
0.0
 40
1.0
100
AcDbArc
 50
180.0
 51
270.0
  0
LINE
  5
C9
102
{ACAD_REACTORS
330
9B
102
}
100
AcDbEntity
  8
0
  6
CONTINUOUS
 62
     7
100
AcDbLine
 10
31.5
 20
5.0
 30
0.0
 11
31.5
 21
11.0
 31
0.0
  0
ARC
  5
CA
102
{ACAD_REACTORS
330
9B
102
}
100
AcDbEntity
  8
0
  6
CONTINUOUS
 62
     7
100
AcDbCircle
 10
32.5
 20
11.0
 30
0.0
 40
1.0
100
AcDbArc
 50
90.0
 51
180.0
  0
LINE
  5
CB
102
{ACAD_REACTORS
330
9B
102
}
100
AcDbEntity
  8
0
  6
CONTINUOUS
 62
     7
100
AcDbLine
 10
32.5
 20
12.0
 30
0.0
 11
54.0375
 21
12.0
 31
0.0
  0
LINE
  5
CC
102
{ACAD_REACTORS
330
9B
102
}
100
AcDbEntity
  8
0
  6
CONTINUOUS
 62
     7
100
AcDbLine
 10
54.0375
 20
12.0
 30
0.0
 11
54.0375
 21
21.5
 31
0.0
  0
LINE
  5
CD
102
{ACAD_REACTORS
330
9B
102
}
100
AcDbEntity
  8
0
  6
CONTINUOUS
 62
     7
100
AcDbLine
 10
54.0375
 20
21.5
 30
0.0
 11
37.4125
 21
21.5
 31
0.0
  0
LINE
  5
CE
102
{ACAD_REACTORS
330
9B
102
}
100
AcDbEntity
  8
0
  6
CONTINUOUS
 62
     7
100
AcDbLine
 10
37.4125
 20
21.5
 30
0.0
 11
37.4125
 21
16.5
 31
0.0
  0
LINE
  5
CF
102
{ACAD_REACTORS
330
9B
102
}
100
AcDbEntity
  8
0
  6
CONTINUOUS
 62
     7
100
AcDbLine
 10
37.4125
 20
16.5
 30
0.0
 11
34.9125
 21
16.5
 31
0.0
  0
LINE
  5
D0
102
{ACAD_REACTORS
330
9B
102
}
100
AcDbEntity
  8
0
  6
CONTINUOUS
 62
     7
100
AcDbLine
 10
34.9125
 20
16.5
 30
0.0
 11
34.9125
 21
21.5
 31
0.0
  0
LINE
  5
D1
102
{ACAD_REACTORS
330
9B
102
}
100
AcDbEntity
  8
0
  6
CONTINUOUS
 62
     7
100
AcDbLine
 10
34.9125
 20
21.5
 30
0.0
 11
31.2625
 21
21.5
 31
0.0
  0
LINE
  5
D2
102
{ACAD_REACTORS
330
9B
102
}
100
AcDbEntity
  8
0
  6
CONTINUOUS
 62
     7
100
AcDbLine
 10
31.2625
 20
21.5
 30
0.0
 11
31.2625
 21
29.5
 31
0.0
  0
LINE
  5
D3
102
{ACAD_REACTORS
330
9B
102
}
100
AcDbEntity
  8
0
  6
CONTINUOUS
 62
     7
100
AcDbLine
 10
31.2625
 20
29.5
 30
0.0
 11
29.0
 21
29.5
 31
0.0
  0
LINE
  5
D4
102
{ACAD_REACTORS
330
9B
102
}
100
AcDbEntity
  8
0
  6
CONTINUOUS
 62
     7
100
AcDbLine
 10
29.0
 20
29.5
 30
0.0
 11
29.0
 21
19.0
 31
0.0
  0
ARC
  5
D5
102
{ACAD_REACTORS
330
9B
102
}
100
AcDbEntity
  8
0
  6
CONTINUOUS
 62
     7
100
AcDbCircle
 10
28.0
 20
19.0
 30
0.0
 40
1.0
100
AcDbArc
 50
270.0
 51
0.0
  0
LINE
  5
D6
102
{ACAD_REACTORS
330
9B
102
}
100
AcDbEntity
  8
0
  6
CONTINUOUS
 62
     7
100
AcDbLine
 10
28.0
 20
18.0
 30
0.0
 11
22.0
 21
18.0
 31
0.0
  0
ARC
  5
D7
102
{ACAD_REACTORS
330
9B
102
}
100
AcDbEntity
  8
0
  6
CONTINUOUS
 62
     7
100
AcDbCircle
 10
22.0
 20
19.0
 30
0.0
 40
1.0
100
AcDbArc
 50
180.0
 51
270.0
  0
LINE
  5
D8
102
{ACAD_REACTORS
330
9B
102
}
100
AcDbEntity
  8
0
  6
CONTINUOUS
 62
     7
100
AcDbLine
 10
21.0
 20
19.0
 30
0.0
 11
21.0
 21
42.0
 31
0.0
  0
ARC
  5
D9
102
{ACAD_REACTORS
330
9B
102
}
100
AcDbEntity
  8
0
  6
CONTINUOUS
 62
     7
100
AcDbCircle
 10
22.0
 20
42.0
 30
0.0
 40
1.0
100
AcDbArc
 50
90.0
 51
180.0
  0
LINE
  5
DA
102
{ACAD_REACTORS
330
9B
102
}
100
AcDbEntity
  8
0
  6
CONTINUOUS
 62
     7
100
AcDbLine
 10
22.0
 20
43.0
 30
0.0
 11
27.3125
 21
43.0
 31
0.0
  0
LINE
  5
DB
102
{ACAD_REACTORS
330
9B
102
}
100
AcDbEntity
  8
0
  6
CONTINUOUS
 62
     7
100
AcDbLine
 10
27.3125
 20
43.0
 30
0.0
 11
27.3
 21
44.5
 31
0.0
  0
LWPOLYLINE
  5
DC
102
{ACAD_REACTORS
330
9B
102
}
100
AcDbEntity
  8
0
  6
CONTINUOUS
 62
     7
100
AcDbPolyline
 90
        8
 70
     1
 10
108.5
 20
11.0
 42
-0.414214
 10
109.5
 20
12.0
 10
132.5
 20
12.0
 42
-0.414214
 10
133.5
 20
11.0
 10
133.5
 20
5.0
 42
-0.414214
 10
132.5
 20
4.0
 10
109.5
 20
4.0
 42
-0.414214
 10
108.5
 20
5.0
  0
CIRCLE
  5
DD
102
{ACAD_REACTORS
330
9B
102
}
100
AcDbEntity
  8
0
  6
CONTINUOUS
 62
     7
100
AcDbCircle
 10
10.4
 20
7.5
 30
0.0
 40
2.5
  0
CIRCLE
  5
DE
102
{ACAD_REACTORS
330
9B
102
}
100
AcDbEntity
  8
0
  6
CONTINUOUS
 62
     7
100
AcDbCircle
 10
141.5
 20
7.5
 30
0.0
 40
2.5
  0
CIRCLE
  5
DF
102
{ACAD_REACTORS
330
9B
102
}
100
AcDbEntity
  8
0
  6
CONTINUOUS
 62
     7
100
AcDbCircle
 10
141.5
 20
52.5
 30
0.0
 40
2.5
  0
CIRCLE
  5
E0
102
{ACAD_REACTORS
330
9B
102
}
100
AcDbEntity
  8
0
  6
CONTINUOUS
 62
     7
100
AcDbCircle
 10
10.4
 20
52.5
 30
0.0
 40
2.5
  0
LWPOLYLINE
  5
E1
102
{ACAD_REACTORS
330
9B
102
}
100
AcDbEntity
  8
0
  6
CONTINUOUS
 62
     7
100
AcDbPolyline
 90
       31
 70
     1
 10
134.4
 20
41.0
 10
139.8
 20
41.0
 42
-0.414214
 10
140.8
 20
40.0
 10
140.8
 20
17.0
 42
-0.414214
 10
139.8
 20
16.0
 10
133.8
 20
16.0
 42
-0.414214
 10
132.8
 20
17.0
 10
132.8
 20
27.5
 10
129.4
 20
27.5
 10
129.4
 20
19.5
 10
125.75
 20
19.5
 10
125.75
 20
14.5
 10
123.25
 20
14.5
 10
123.25
 20
19.5
 10
106.9
 20
19.5
 10
106.9
 20
47.5
 10
90.5
 20
47.5
 42
-0.414214
 10
89.5
 20
48.5
 10
89.5
 20
54.5
 42
-0.414214
 10
90.5
 20
55.5
 10
113.5
 20
55.5
 42
-0.414214
 10
114.5
 20
54.5
 10
114.5
 20
49.0
 10
116.9
 20
49.0
 42
-0.414214
 10
117.9
 20
48.0
 10
117.9
 20
42.5
 10
123.25
 20
42.5
 10
123.25
 20
47.5
 10
125.75
 20
47.5
 10
125.75
 20
42.5
 10
134.4
 20
42.5
  0
ENDSEC
  0
SECTION
  2
OBJECTS
  0
DICTIONARY
  5
C
100
AcDbDictionary
  3
ACAD_GROUP
350
D
  3
ACAD_MLINESTYLE
350
1B
  0
DICTIONARY
  5
D
102
{ACAD_REACTORS
330
C
102
}
100
AcDbDictionary
  3
VISIOGROUP_0
350
31
  3
VISIOGROUP_1
350
42
  3
VISIOGROUP_2
350
4B
  3
VISIOGROUP_3
350
92
  3
VISIOGROUP_4
350
9B
  0
DICTIONARY
  5
1B
102
{ACAD_REACTORS
330
C
102
}
100
AcDbDictionary
  3
STANDARD
350
1C
  0
MLINESTYLE
  5
1C
102
{ACAD_REACTORS
330
1B
102
}
100
AcDbMlineStyle
  2
STANDARD
 70
     0
  3

 62
   256
 51
90.0
 52
90.0
 71
     2
 49
0.5
 62
   256
  6
BYLAYER
 49
-0.5
 62
   256
  6
BYLAYER
  0
GROUP
  5
31
102
{ACAD_REACTORS
330
D
102
}
100
AcDbGroup
300
Group created by Visio.
 70
     0
 71
     1
340
32
340
33
340
34
340
35
340
36
340
37
340
38
340
39
340
3A
340
3B
340
3C
340
3D
340
3E
340
3F
340
40
340
41
  0
GROUP
  5
42
102
{ACAD_REACTORS
330
D
102
}
100
AcDbGroup
300
Group created by Visio.
 70
     0
 71
     1
340
43
340
44
340
45
340
46
340
47
340
48
340
49
340
4A
  0
GROUP
  5
4B
102
{ACAD_REACTORS
330
D
102
}
100
AcDbGroup
300
Group created by Visio.
 70
     0
 71
     1
340
4C
340
4D
340
4E
340
4F
340
50
340
51
340
52
340
53
340
54
340
55
340
56
340
57
340
58
340
59
340
5A
340
5B
340
5C
340
5D
340
5E
340
5F
340
60
340
61
340
62
340
63
340
64
340
65
340
66
340
67
340
68
340
69
340
6A
340
6B
340
6C
340
6D
340
6E
340
6F
340
70
340
71
340
72
340
73
340
74
340
75
340
76
340
77
340
78
340
79
340
7A
340
7B
340
7C
340
7D
340
7E
340
7F
340
80
340
81
340
82
340
83
340
84
340
85
340
86
340
87
340
88
340
89
340
8A
340
8B
340
8C
340
8D
340
8E
340
8F
340
90
340
91
  0
GROUP
  5
92
102
{ACAD_REACTORS
330
D
102
}
100
AcDbGroup
300
Group created by Visio.
 70
     0
 71
     1
340
93
340
94
340
95
340
96
340
97
340
98
340
99
340
9A
  0
GROUP
  5
9B
102
{ACAD_REACTORS
330
D
102
}
100
AcDbGroup
300
Group created by Visio.
 70
     0
 71
     1
340
9C
340
9D
340
9E
340
9F
340
A0
340
A1
340
A2
340
A3
340
A4
340
A5
340
A6
340
A7
340
A8
340
A9
340
AA
340
AB
340
AC
340
AD
340
AE
340
AF
340
B0
340
B1
340
B2
340
B3
340
B4
340
B5
340
B6
340
B7
340
B8
340
B9
340
BA
340
BB
340
BC
340
BD
340
BE
340
BF
340
C0
340
C1
340
C2
340
C3
340
C4
340
C5
340
C6
340
C7
340
C8
340
C9
340
CA
340
CB
340
CC
340
CD
340
CE
340
CF
340
D0
340
D1
340
D2
340
D3
340
D4
340
D5
340
D6
340
D7
340
D8
340
D9
340
DA
340
DB
340
DC
340
DD
340
DE
340
DF
340
E0
340
E1
  0
ENDSEC
  0
EOF
